<?xml version="1.0" encoding="UTF-8"?>
<svg width="180px" height="180px" viewBox="0 0 180 180" version="1.1" xmlns="http://www.w3.org/2000/svg" xmlns:xlink="http://www.w3.org/1999/xlink">
    <!-- Generator: Sketch 49 (51002) - http://www.bohemiancoding.com/sketch -->
    <title>Slice Copy 2</title>
    <desc>Created with Sketch.</desc>
    <defs></defs>
    <g id="Page-1" stroke="none" stroke-width="1" fill="none" fill-rule="evenodd">
        <g id="Group-7-Copy" transform="translate(40.000000, 40.000000)">
            <g id="Group-6" transform="translate(50.000000, 50.000000) scale(1, -1) translate(-50.000000, -50.000000) ">
                <circle id="Oval" stroke="#000000" stroke-width="4" cx="50" cy="50" r="48"></circle>
                <g id="Group-2" transform="translate(50.000000, 50.000000) scale(1, -1) translate(-50.000000, -50.000000) translate(37.000000, 16.000000)" fill="#000000">
                    <circle id="Oval-2" cx="13" cy="13" r="13"></circle>
                    <path d="M4,36.6936232 C4,31.7600156 9.50636743,28 12.3693859,28 C15.2324044,28 22,31.3854499 22,36.6936232 C22,44.3015079 22,54.0990706 22,66.0863114 C17.5105894,67.3621038 14.3003847,68 12.3693859,68 C10.4383871,68 7.64859178,67.3621038 4,66.0863114 C4,51.8138208 4,42.016258 4,36.6936232 Z" id="Rectangle-2"></path>
                </g>
            </g>
        </g>
    </g>
</svg>